<svg xmlns="http://www.w3.org/2000/svg" width="81" height="81" viewBox="0 0 81 81" fill="none">
  <mask id="mask0_1939_3387" style="mask-type:alpha" maskUnits="userSpaceOnUse" x="0" y="0" width="81" height="81">
    <rect width="80.5" height="80.5" fill="#D9D9D9"/>
  </mask>
  <g>
    <path d="M40.2503 33.5417C42.0951 33.5417 43.6744 32.8848 44.9881 31.5711C46.3018 30.2574 46.9587 28.6781 46.9587 26.8333C46.9587 24.9885 46.3018 23.4093 44.9881 22.0956C43.6744 20.7819 42.0951 20.125 40.2503 20.125C38.4055 20.125 36.8263 20.7819 35.5126 22.0956C34.1989 23.4093 33.542 24.9885 33.542 26.8333C33.542 28.6781 34.1989 30.2574 35.5126 31.5711C36.8263 32.8848 38.4055 33.5417 40.2503 33.5417ZM40.2503 67.0833C31.25 59.4247 24.5277 52.311 20.0834 45.7424C15.6391 39.1739 13.417 33.0944 13.417 27.5042C13.417 19.1187 16.1143 12.4384 21.5089 7.46302C26.9035 2.48767 33.1507 0 40.2503 0C47.35 0 53.5971 2.48767 58.9917 7.46302C64.3864 12.4384 67.0837 19.1187 67.0837 27.5042C67.0837 33.0944 64.8615 39.1739 60.4173 45.7424C55.973 52.311 49.2507 59.4247 40.2503 67.0833Z" fill="#003DA6"/>
  </g>
</svg>